<svg width="24" height="24" viewBox="0 0 24 24" fill="none" xmlns="http://www.w3.org/2000/svg">
<path d="M22.5 12C22.5 17.799 17.799 22.5 12 22.5C6.20101 22.5 1.5 17.799 1.5 12C1.5 6.20101 6.20101 1.5 12 1.5C17.799 1.5 22.5 6.20101 22.5 12Z" stroke="#043B72"/>
<path d="M12 22C17.5228 22 22 17.5228 22 12C22 6.47715 17.5228 2 12 2C6.47715 2 2 6.47715 2 12C2 17.5228 6.47715 22 12 22Z" stroke="#043B72" stroke-width="2"/>
<path d="M22 11H3V13H22V11Z" fill="#043B72"/>
<path d="M10.104 2.25195C9.58222 4.00722 9.1773 5.79514 8.89197 7.60395C8.63975 9.14735 8.50872 10.7081 8.5 12.272C8.57696 15.6497 9.11525 19.001 10.1 22.233" stroke="#043B72" stroke-width="2"/>
<path d="M14.0039 2.25195C14.5257 4.00722 14.9306 5.79514 15.2159 7.60395C15.4682 9.14735 15.5992 10.7081 15.6079 12.272C15.5309 15.6497 14.9927 19.001 14.0079 22.233" stroke="#043B72" stroke-width="2"/>
</svg>
