<svg width="24" height="24" viewBox="0 0 24 24" fill="none" xmlns="http://www.w3.org/2000/svg">
<path d="M12 12C14.7614 12 17 9.76142 17 7C17 4.23858 14.7614 2 12 2C9.23858 2 7 4.23858 7 7C7 9.76142 9.23858 12 12 12Z" stroke="#043B72" stroke-width="2"/>
<path d="M12 14.6992C9.89808 14.6992 8.13279 15.1249 6.75317 15.9645C5.68899 16.6121 4.82695 17.5241 4.19101 18.6753C3.74758 19.4779 3.46918 20.295 3.2944 21H20.7046C20.4024 19.7845 19.7915 18.2324 18.5582 16.9954C17.039 15.4718 14.8325 14.6992 12 14.6992ZM12 12.6992C23.0302 12.6992 23 23 23 23C23 23 18.0751 23 12 23C5.92487 23 1 23 1 23C1 23 0.969781 12.6992 12 12.6992Z" fill="#043B72"/>
</svg>
