<svg width="72" height="72" viewBox="0 0 72 72" fill="none" xmlns="http://www.w3.org/2000/svg">
<path d="M26.8711 32.5947H23.1855V34.5576H26.8711V32.5947Z" fill="#F58220"/>
<path d="M35.0351 32.5947H31.3496V34.5576H35.0351V32.5947Z" fill="#F58220"/>
<path d="M43.2002 32.5947H39.5146V34.5576H43.2002V32.5947Z" fill="#F58220"/>
<path fill-rule="evenodd" clip-rule="evenodd" d="M18.6336 48.13C22.5175 52.0243 27.6856 54.1647 33.1878 54.1647L33.1982 54.1751C38.69 54.1751 43.8581 52.0348 47.7524 48.1404C55.7812 40.1116 55.7812 27.0504 47.7524 19.0216C39.7236 10.9928 26.6624 10.9928 18.6336 19.0216C15.72 21.9274 13.7882 25.552 13 29.4975H15.2742C16.0294 26.1476 17.7148 23.0726 20.1997 20.5877C23.7808 17.0066 28.4895 15.2212 33.1878 15.2212V15.2317C37.8965 15.2317 42.5948 17.017 46.1759 20.5981C53.3381 27.7604 53.3381 39.4017 46.1759 46.5639C42.6992 50.0302 38.0949 51.9408 33.1878 51.9408C28.2807 51.9408 23.666 50.0406 20.1997 46.5639C17.7148 44.0716 16.0294 40.9997 15.2742 37.6523L13 37.6541C13.7882 41.5996 15.72 45.2242 18.6336 48.13Z" fill="#043B72"/>
<path d="M47.1711 45.9973L45.5986 47.5698L56.967 58.9382L58.5395 57.3657L47.1711 45.9973Z" fill="#043B72"/>
</svg>
