<svg width="24" height="24" viewBox="0 0 24 24" fill="none" xmlns="http://www.w3.org/2000/svg">
<g clip-path="url(#clip0_33_707)">
<path d="M2.9491 4.95506L2.94971 4.95444C3.32746 4.57258 3.77719 4.26942 4.27288 4.06252C4.76857 3.85563 5.30037 3.74909 5.83751 3.74909C6.37465 3.74909 6.90645 3.85563 7.40214 4.06252C7.89783 4.26942 8.34756 4.57258 8.72531 4.95445L8.72645 4.95559L11.4674 7.71459L12.0002 8.25085L12.5323 7.71389L15.2388 4.98234L15.2413 4.97989L15.2668 4.95434L15.2668 4.95434L15.2697 4.95144C15.6475 4.56958 16.0972 4.26642 16.5929 4.05952C17.0886 3.85263 17.6204 3.74609 18.1575 3.74609C18.6946 3.74609 19.2264 3.85263 19.7221 4.05952C20.2178 4.26642 20.6676 4.56958 21.0453 4.95144L21.0459 4.95206C21.8165 5.72929 22.2489 6.77949 22.2489 7.874C22.2489 8.96851 21.8165 10.0187 21.0459 10.7959L11.9993 19.9143L2.9491 10.7989C2.17848 10.0217 1.74609 8.97151 1.74609 7.877C1.74609 6.78249 2.17848 5.73229 2.9491 4.95506Z" stroke="#949494" stroke-width="1.5"/>
<path d="M17.46 2C15.18 2 13.176 3.176 12 4.964C10.824 3.176 8.82 2 6.54 2C2.928 2 0 4.964 0 8.612C0 16.784 12 23 12 23C12 23 24 16.784 24 8.612C24 4.964 21.072 2 17.46 2Z" fill="#E0E0E0"/>
</g>
<defs>
<clipPath id="clip0_33_707">
<rect width="24" height="24" fill="white"/>
</clipPath>
</defs>
</svg>
