<svg width="32" height="32" viewBox="0 0 32 32" fill="none" xmlns="http://www.w3.org/2000/svg">
<g clip-path="url(#clip0_2222_41089)">
<path d="M16.4241 10.1738H15.5759V12.342H16.4241V10.1738Z" fill="#F58220"/>
<path d="M16.4241 19.4287H15.5759V21.5969H16.4241V19.4287Z" fill="#F58220"/>
<path d="M13.7786 16.3072H12.9304V13.2406C12.9304 12.278 13.7144 11.4941 14.6772 11.4941H19.065V12.3422H14.6772C14.1821 12.3422 13.7786 12.7455 13.7786 13.2406V16.3072Z" fill="#F58220"/>
<path d="M17.3228 20.2722H12.9351V19.4242H17.3228C17.8179 19.4242 18.2214 19.0208 18.2214 18.5258V16.3026H15.5759V15.4546H19.065V18.5212C19.065 19.4838 18.281 20.2677 17.3182 20.2677L17.3228 20.2722Z" fill="#F58220"/>
<path d="M16.4241 10.1738H15.5759V12.342H16.4241V10.1738Z" fill="#F58220"/>
<path d="M16.4241 19.4287H15.5759V21.5969H16.4241V19.4287Z" fill="#F58220"/>
<path d="M13.7786 16.3072H12.9304V13.2406C12.9304 12.278 13.7144 11.4941 14.6772 11.4941H19.065V12.3422H14.6772C14.1821 12.3422 13.7786 12.7455 13.7786 13.2406V16.3072Z" fill="#F58220"/>
<path d="M17.3228 20.2722H12.9351V19.4242H17.3228C17.8179 19.4242 18.2214 19.0208 18.2214 18.5258V16.3026H15.5759V15.4546H19.065V18.5212C19.065 19.4838 18.281 20.2677 17.3182 20.2677L17.3228 20.2722Z" fill="#F58220"/>
<path d="M20.766 6.45671H23.3473V5.61328H20.1837C19.9499 5.61328 19.7298 5.71871 19.5785 5.89748C19.4272 6.08084 19.3676 6.31461 19.4135 6.54839L20.0462 9.72043L20.876 9.55541L20.4084 7.23139C23.7186 8.89075 25.8139 12.237 25.8139 16.0003C25.8139 21.4139 21.4079 25.819 15.9932 25.819V26.667C21.8755 26.667 26.6575 21.8814 26.6575 16.0003C26.6575 11.9024 24.3697 8.25359 20.7568 6.45671H20.766Z" fill="#043B72"/>
<path d="M12.0869 22.193L11.257 22.358L11.7568 24.8516C8.38689 23.2335 6.18157 19.7773 6.18157 16.0002C6.18157 10.5866 10.583 6.18151 15.9977 6.18151V5.3335C10.12 5.3335 5.33337 10.1191 5.33337 16.0002C5.33337 19.9881 7.59829 23.6369 11.0782 25.4567H8.78577V26.3047H11.9493C12.1831 26.3047 12.4032 26.1993 12.5545 26.0205C12.7058 25.8371 12.7654 25.6034 12.7196 25.3696L12.0823 22.1976L12.0869 22.193Z" fill="#043B72"/>
</g>
<defs>
<clipPath id="clip0_2222_41089">
<rect width="21.3333" height="21.3333" fill="white" transform="translate(5.33337 5.3335)"/>
</clipPath>
</defs>
</svg>
