<svg width="32" height="32" viewBox="0 0 32 32" fill="none" xmlns="http://www.w3.org/2000/svg">
<g clip-path="url(#clip0_2222_41181)">
<path d="M14.1593 17.7554H8.84497V18.7199H14.1593V17.7554Z" fill="#F58220"/>
<path d="M11.9803 15.583H11.0149V20.8927H11.9803V15.583Z" fill="#F58220"/>
<path d="M23.1594 17.7554H17.8451V18.7199H23.1594V17.7554Z" fill="#F58220"/>
<path d="M14.8134 12.6264L14.0555 12.0314L16.1714 9.34054H14.1322L17.1729 5.3335L17.9443 5.91495L16.0766 8.37146H18.1609L14.8134 12.6264Z" fill="#043B72"/>
<path d="M28.8889 9.80908H19.8842V10.7737H26.6196V22.9976C26.6196 24.4895 25.4061 25.702 23.9174 25.702H6.3457V26.6666H23.9174C25.9429 26.6666 27.5896 25.0214 27.5896 22.9976V10.7737H28.8934V9.80908H28.8889Z" fill="#043B72"/>
<path d="M5.38029 10.7737H8.10062H12.1157V9.80908H8.10062H4.41035H3.11108V10.7737H4.41035V26.6666H5.38029V25.702V10.7737Z" fill="#043B72"/>
</g>
<defs>
<clipPath id="clip0_2222_41181">
<rect width="25.7778" height="21.3333" fill="white" transform="translate(3.11108 5.3335)"/>
</clipPath>
</defs>
</svg>
