<svg width="32" height="32" viewBox="0 0 32 32" fill="none" xmlns="http://www.w3.org/2000/svg">
<g clip-path="url(#clip0_2222_41118)">
<path d="M18.7058 12.2358V13.1121L18.6969 17.7614C18.6969 17.9805 18.5359 18.1414 18.442 18.2129C18.2496 18.3649 17.9724 18.4499 17.6861 18.4499H14.1753V19.3216H17.6861C18.1691 19.3306 18.6298 19.1786 18.9831 18.9059C19.3588 18.6108 19.5779 18.195 19.5779 17.7614L19.5869 12.2358H18.7103H18.7058Z" fill="#F58220"/>
<path d="M13.2987 17.5962L13.3076 13.1033L17.8247 13.1123L17.8292 12.2316L12.431 12.2227L12.4176 19.3174L13.2942 19.3218L13.2987 17.5962Z" fill="#F58220"/>
<path d="M23.4555 7.68052V6.79983L19.2425 6.79536L19.247 5.34691L18.3704 5.34244L18.3659 6.79089L13.4687 6.78195L13.4731 5.3335H12.5965L12.5921 6.78195L6.80479 6.773L6.79138 12.6562H5.34679L5.34232 13.5324L6.79138 13.5369L6.78243 18.4321L5.33337 18.4277V19.3083H6.78243L6.77349 25.196H7.66349L7.66797 24.3198H7.65008L7.65902 19.3083L7.66349 18.4321L7.66797 13.5369H7.67244V12.6607L7.68138 7.64923L23.4555 7.68052Z" fill="#043B72"/>
<path d="M26.6668 13.5681V12.6919H25.2177L25.2266 6.8042H24.3322V7.68042H24.3501L24.3411 12.6874V13.5636L24.3322 18.4589V19.3351V22.147C24.3232 23.3585 23.3393 24.3421 22.1273 24.3376H18.7327L18.3391 24.3331L8.54907 24.3152V25.1915L12.5653 25.2004V26.6488H13.4419V25.2004L18.3391 25.2093V26.6578H19.2157V25.2093L22.1273 25.2138C23.8223 25.2138 25.2043 23.8414 25.2043 22.147V19.3351H26.6578V18.4589H25.2088L25.2177 13.5636H26.6668V13.5681Z" fill="#043B72"/>
<path d="M14.5333 14.2758L14.5317 15.1523L15.9853 15.1549L15.9868 14.2783L14.5333 14.2758Z" fill="#F58220"/>
</g>
<defs>
<clipPath id="clip0_2222_41118">
<rect width="21.3333" height="21.3333" fill="white" transform="translate(5.33337 5.3335)"/>
</clipPath>
</defs>
</svg>
