<svg width="32" height="32" viewBox="0 0 32 32" fill="none" xmlns="http://www.w3.org/2000/svg">
<g clip-path="url(#clip0_2222_41195)">
<path d="M19.9596 8.66475C19.5402 8.23691 18.9825 8.00071 18.3847 7.99179C18.3757 7.99179 18.3668 7.99179 18.3579 7.99179C17.7689 7.99179 17.2202 8.21463 16.7963 8.6291L16.1851 8.00071C16.7785 7.42134 17.5414 7.08263 18.398 7.11828C19.2279 7.1272 20.0087 7.46145 20.5887 8.05419L19.9596 8.66475Z" fill="#F58220"/>
<path d="M21.8736 6.79756C20.959 5.86166 19.7321 5.33577 18.4203 5.31795C17.1086 5.29121 15.8727 5.79481 14.9313 6.71289L14.3201 6.0845C15.4221 5.01044 16.8989 4.43552 18.4293 4.44444C19.973 4.46226 21.4186 5.08174 22.4983 6.187L21.8692 6.79756H21.8736Z" fill="#F58220"/>
<path d="M16.5331 20.1809L15.8415 19.6461L18.8219 15.7643H15.5917L19.1744 11.2007L19.8615 11.7399L17.3942 14.8864H20.5976L16.5331 20.1809Z" fill="#F58220"/>
<path d="M6.77544 26.0327C6.5122 26.1575 6.21773 26.2377 5.90541 26.2377C5.37894 26.2288 4.88816 26.0193 4.5223 25.6405C4.15645 25.2617 3.96013 24.767 3.96459 24.2411C3.98244 23.167 4.86139 22.3024 5.93665 22.3024C5.94557 22.3024 5.95449 22.3024 5.96342 22.3024C7.0476 22.3203 7.92208 23.2161 7.90423 24.299C7.89531 24.7536 7.73023 25.1636 7.46253 25.4934L8.06039 26.1396C8.49317 25.6494 8.7698 25.0166 8.77872 24.3124C8.80103 22.7436 7.54284 21.4512 5.97234 21.4245C4.39291 21.3799 3.10796 22.659 3.08565 24.2277C3.07226 24.9854 3.36227 25.7073 3.88875 26.2511C4.41522 26.7948 5.12909 27.1023 5.88757 27.1156C5.90095 27.1156 5.91434 27.1156 5.92772 27.1156C6.45866 27.1156 6.9539 26.9597 7.38222 26.7012L6.76651 26.0327H6.77544Z" fill="#043B72"/>
<path d="M27.2946 26.0726C27.0492 26.1796 26.786 26.2375 26.5093 26.2375C26.5004 26.2375 26.4915 26.2375 26.4781 26.2375C25.9516 26.2286 25.4608 26.0192 25.095 25.6403C24.7291 25.2615 24.5328 24.7668 24.5373 24.2409C24.5551 23.1669 25.4341 22.3023 26.5093 22.3023C26.5183 22.3023 26.5272 22.3023 26.5361 22.3023C27.6203 22.3201 28.4948 23.2159 28.4769 24.2989C28.4725 24.7624 28.2985 25.1947 27.9995 25.5423L28.6197 26.1618C29.0792 25.6492 29.3469 25.0075 29.3559 24.3122C29.3782 22.7435 28.12 21.4511 26.5495 21.4243C26.5361 21.4243 26.5227 21.4243 26.5093 21.4243C24.9567 21.4243 23.6851 22.6722 23.6628 24.2276C23.6494 24.9852 23.9394 25.7072 24.4659 26.2509C24.9924 26.7946 25.7062 27.1021 26.4647 27.1155C26.4781 27.1155 26.4915 27.1155 26.5093 27.1155C27.0224 27.1155 27.5087 26.9729 27.9371 26.7189L27.2901 26.0726H27.2946Z" fill="#043B72"/>
<path d="M21.9049 24.0806H10.5277V24.9541H21.9049V24.0806Z" fill="#043B72"/>
<path d="M8.67609 16.1964L8.02915 17.0832C4.8346 17.1278 2.61716 18.135 1.4259 20.0737C0.444336 21.687 0.444336 23.5454 0.444336 24.4368V24.9537H1.31882V24.4368C1.31882 23.5632 1.31882 21.9321 2.171 20.5327C3.21502 18.8258 5.26292 17.9567 8.24777 17.9567H14.4539V17.0832H9.10887L9.38549 16.7044L11.8528 13.1435H14.4629V12.27H11.3932L8.67163 16.2008L8.67609 16.1964Z" fill="#043B72"/>
<path d="M28.6063 17.1681L25.8222 12.2568H21.9138V13.1303H25.3091L27.5489 17.0745H21.9138V17.948H28.0486L28.2628 17.9837C29.0971 18.104 30.681 19.4098 30.681 23.4788V24.945H31.5555V23.4788C31.5555 19.1023 29.7976 17.4845 28.6108 17.1636L28.6063 17.1681Z" fill="#043B72"/>
</g>
<defs>
<clipPath id="clip0_2222_41195">
<rect width="31.1111" height="22.6667" fill="white" transform="translate(0.444336 4.44434)"/>
</clipPath>
</defs>
</svg>
