<svg width="32" height="32" viewBox="0 0 32 32" fill="none" xmlns="http://www.w3.org/2000/svg">
<g clip-path="url(#clip0_2222_41106)">
<path d="M13.3251 24.468C11.8415 24.8723 10.7221 24.7042 10.1018 23.9773C9.9579 23.8092 9.87249 23.573 9.85451 23.3095L9.62524 19.707H8.81604L9.04981 23.364C9.07678 23.8138 9.22963 24.209 9.49487 24.5179C9.91745 25.0131 10.6547 25.5083 11.891 25.5083C12.363 25.5083 12.907 25.4356 13.5363 25.263L17.6632 24.1908L17.4609 23.4004L13.3296 24.4725L13.3251 24.468Z" fill="#043B72"/>
<path d="M21.5025 22.4056L21.2462 22.5101L21.2687 26.6714H22.0779L22.0554 23.0598C24.2402 22.0558 25.5529 19.7072 25.7462 16.5181H24.937C24.7437 19.4755 23.521 21.6015 21.5025 22.4102V22.4056Z" fill="#043B72"/>
<path d="M25.3955 11.8887H16.7776V12.7064H24.7167C24.8336 13.4332 24.91 14.1737 24.9415 14.8824H16.7776V15.7001H25.7731C25.7731 15.7001 25.7731 15.6956 25.7731 15.6911C25.7731 14.5281 25.6428 13.1652 25.3955 11.8887Z" fill="#043B72"/>
<path d="M17.1148 6.15121C20.2122 6.15121 21.9789 6.87807 23.404 8.73611C23.7996 9.24945 24.1278 10.0944 24.3841 11.0711H25.2202C24.9325 9.90817 24.5414 8.87694 24.0469 8.23639C22.4645 6.17393 20.455 5.3335 17.1148 5.3335C14.1208 5.3335 12.1607 6.59187 10.9244 7.93202H12.0798C13.4195 6.75087 15.1053 6.15121 17.1148 6.15121Z" fill="#043B72"/>
<path d="M11.9854 18.8848H7.51688C6.80209 18.8848 6.22217 18.2988 6.22217 17.5765V10.0535C6.22217 9.33115 6.80209 8.74512 7.51688 8.74512H11.9854C13.6803 8.74512 15.0604 10.1398 15.0604 11.8524V15.7729C15.0604 17.4856 13.6803 18.8803 11.9854 18.8803V18.8848ZM7.51688 9.56283C7.25164 9.56283 7.03136 9.78089 7.03136 10.0535V17.5765C7.03136 17.8445 7.24715 18.0671 7.51688 18.0671H11.9854C13.2352 18.0671 14.2512 17.0404 14.2512 15.7775V11.857C14.2512 10.5941 13.2352 9.56738 11.9854 9.56738H7.51688V9.56283Z" fill="#F58220"/>
<path d="M13.496 11.2803H12.6868V16.3547H13.496V11.2803Z" fill="#F58220"/>
</g>
<defs>
<clipPath id="clip0_2222_41106">
<rect width="19.5556" height="21.3333" fill="white" transform="translate(6.22217 5.3335)"/>
</clipPath>
</defs>
</svg>
