<svg width="32" height="32" viewBox="0 0 32 32" fill="none" xmlns="http://www.w3.org/2000/svg">
<g clip-path="url(#clip0_2222_41141)">
<path d="M4 12.0146V24.8819H12.7027V24.0174H4.85012V12.8791H19.7101V21.8587C19.7101 23.048 18.7568 24.0174 17.5872 24.0174H13.5528V24.8819H17.5872C19.2236 24.8819 20.5602 23.5277 20.5602 21.8587V12.0146H4Z" fill="#043B72"/>
<path d="M20.5602 4.44434H19.7101V7.18269H20.5602V4.44434Z" fill="#043B72"/>
<path d="M28 12.0146H25.3071V12.8791H28V12.0146Z" fill="#043B72"/>
<path d="M25.3943 6.48215L23.4901 8.41846L24.0912 9.02974L25.9954 7.09343L25.3943 6.48215Z" fill="#043B72"/>
<path d="M24.0925 15.8594L23.4913 16.4707L25.3955 18.407L25.9966 17.7957L24.0925 15.8594Z" fill="#043B72"/>
<path d="M14.8699 6.48345L14.2688 7.09473L16.1729 9.03104L16.7741 8.41976L14.8699 6.48345Z" fill="#043B72"/>
<path d="M12.7027 24.0127H11.8525V27.5556H12.7027V24.0127Z" fill="#043B72"/>
<path d="M8.63394 16.2373H7.78381V20.5747H8.63394V16.2373Z" fill="#F58220"/>
<path d="M12.8206 16.2373H11.9705V20.5747H12.8206V16.2373Z" fill="#F58220"/>
<path d="M17.0073 16.2373H16.1572V20.5747H17.0073V16.2373Z" fill="#F58220"/>
<path d="M17.3121 26.6909H7.24329V27.5554H17.3121V26.6909Z" fill="#043B72"/>
<path d="M17.0074 18.0112H7.78381V18.8757H17.0074V18.0112Z" fill="#F58220"/>
<path d="M16.0393 12.0151C16.0246 12.1551 16.0197 12.3 16.0197 12.4449V12.8746H16.8698V12.4449C16.8698 12.3 16.8845 12.1551 16.8993 12.0151H16.0393Z" fill="#043B72"/>
<path d="M20.1327 8.26221C18.4079 8.26221 16.9288 9.35155 16.3195 10.8856H17.2531C17.8035 9.84126 18.8895 9.12669 20.1327 9.12669C21.9313 9.12669 23.3956 10.6158 23.3956 12.4447C23.3956 13.7139 22.6929 14.8133 21.6659 15.3729V16.3224C23.1745 15.7027 24.2457 14.1986 24.2457 12.4447C24.2457 10.1411 22.403 8.26221 20.1327 8.26221Z" fill="#043B72"/>
<path d="M20.5553 15.7329C20.4177 15.7529 20.2752 15.7629 20.1327 15.7629H19.7101V16.6274H20.1327C20.2752 16.6274 20.4177 16.6174 20.5553 16.6074V15.7329Z" fill="#043B72"/>
</g>
<defs>
<clipPath id="clip0_2222_41141">
<rect width="24" height="23.1111" fill="white" transform="translate(4 4.44434)"/>
</clipPath>
</defs>
</svg>
