<svg width="32" height="32" viewBox="0 0 32 32" fill="none" xmlns="http://www.w3.org/2000/svg">
<g clip-path="url(#clip0_2222_41130)">
<path d="M15.8217 17.825C15.5808 18.0132 15.3028 18.1509 15.0017 18.2336L16.6787 21.3461L14.5894 24.9958C14.3161 25.464 13.8019 25.7579 13.2414 25.7579H9.64189C9.08598 25.7579 8.56714 25.464 8.28456 24.982L5.96829 21.3461L8.94701 16.4524H12.0647C12.0323 16.3009 12.0184 16.1402 12.0184 15.9795C12.0184 15.8326 12.0369 15.6903 12.0601 15.5526H8.95627L6.08411 10.6358L8.75244 6.24247H14.0752L15.5067 8.75821H16.5629L14.6126 5.3335H8.2336L5.01863 10.6267L8.15021 15.9979L4.88892 21.3553L7.49703 25.4503C7.93248 26.1986 8.75707 26.6668 9.64189 26.6668H13.2414C14.1262 26.6668 14.9461 26.1986 15.3862 25.4457L17.7256 21.3553L15.8217 17.825Z" fill="#043B72"/>
<path d="M24.2251 14.1292C24.466 13.9456 24.7393 13.8079 25.0404 13.7298L23.3542 10.6724H16.8779L16.1182 12.3893L14.9971 14.6801C14.8072 14.5929 14.6034 14.5378 14.381 14.5378C13.5796 14.5378 12.9264 15.1851 12.9264 15.9793C12.9264 16.7735 13.5796 17.4208 14.381 17.4208C15.1824 17.4208 15.8356 16.7735 15.8356 15.9793C15.8356 15.7498 15.7754 15.5386 15.6827 15.3458L16.9474 12.7658L17.4755 11.5767H22.8168L24.2298 14.1246L24.2251 14.1292ZM14.608 16.4659C14.5385 16.4981 14.4598 16.521 14.3764 16.521C14.0753 16.521 13.8297 16.2777 13.8297 15.9793C13.8297 15.6809 14.0753 15.4376 14.3764 15.4376C14.4551 15.4376 14.5292 15.456 14.5987 15.4881C14.7887 15.5707 14.923 15.7589 14.923 15.9793C14.923 16.1997 14.7933 16.3787 14.608 16.4659Z" fill="#F58220"/>
<path d="M24.6698 14.928C24.8922 14.7214 25.1794 14.5883 25.4944 14.5562C25.1747 14.5929 24.8922 14.726 24.6698 14.928Z" fill="#F58220"/>
<path d="M25.6566 14.5378C25.601 14.5378 25.55 14.547 25.4991 14.5516C25.1794 14.5883 24.8968 14.7214 24.6745 14.9234C24.3919 15.1851 24.2112 15.5569 24.2112 15.9747C24.2112 16.4751 24.4706 16.9158 24.8644 17.1775L23.2384 20.1202C22.9836 20.5838 22.5018 20.8731 21.983 20.8731H18.8051V21.7729H21.9876C22.84 21.7729 23.6275 21.3092 24.0444 20.5517L25.7816 17.407C26.5321 17.3519 27.1297 16.7322 27.1297 15.9747C27.1297 15.1805 26.4765 14.5332 25.6751 14.5332L25.6566 14.5378ZM25.6566 16.521C25.5176 16.521 25.3925 16.4659 25.2999 16.3787C25.1887 16.2777 25.1146 16.14 25.1146 15.9793C25.1146 15.915 25.1285 15.8553 25.1516 15.8003C25.2257 15.5891 25.4249 15.4376 25.6612 15.4376C25.9623 15.4376 26.2078 15.6809 26.2078 15.9793C26.2078 16.2777 25.9623 16.521 25.6612 16.521H25.6566Z" fill="#F58220"/>
</g>
<defs>
<clipPath id="clip0_2222_41130">
<rect width="22.2222" height="21.3333" fill="white" transform="translate(4.88892 5.3335)"/>
</clipPath>
</defs>
</svg>
