<svg width="32" height="32" viewBox="0 0 32 32" fill="none" xmlns="http://www.w3.org/2000/svg">
<g clip-path="url(#clip0_2222_41075)">
<path d="M13.6454 20.0705L13.0828 20.6948L17.8865 24.9739L18.4492 24.3496L13.6454 20.0705Z" fill="#043B72"/>
<path d="M21.3261 8.018L20.1551 11.2219L17.1667 11.7481C17.0917 11.4268 16.9512 11.1241 16.7264 10.8586L15.0682 8.89348L16.0144 6.31361L19.3869 5.7222L19.2417 4.89795L15.3867 5.57318L14.2017 8.80966L9.23188 12.9589C9.0211 12.9263 8.80095 12.903 8.5808 12.903C6.29966 12.903 4.44946 14.7471 4.44946 17.0149V17.434H5.29259V17.0149C5.29259 15.2127 6.76807 13.7412 8.5808 13.7412C10.3935 13.7412 11.869 15.2081 11.869 17.0149C11.869 18.8218 10.3935 20.2887 8.5808 20.2887H8.11708V21.2526L13.5412 26.2866H6.76338V27.1248H16.8856V26.2866H14.7731L9.1663 21.085C11.1102 20.8056 12.6185 19.1757 12.6981 17.1826L16.3282 14.151C16.8247 13.7365 17.1151 13.1777 17.1995 12.6049L20.7781 11.9763L22.1177 8.32069L21.3261 8.03197V8.018ZM15.7942 13.4944L12.6185 16.1441C12.3374 14.8309 11.424 13.7459 10.2062 13.229L14.5576 9.59665L16.0753 11.3942C16.5812 11.9949 16.4547 12.9402 15.7896 13.4944H15.7942Z" fill="#043B72"/>
<path d="M9.27385 16.54H7.88269V17.4621H9.27385V16.54Z" fill="#043B72"/>
<path d="M26.2067 17.5037C25.462 17.5037 24.8577 18.1044 24.8577 18.8449C24.8577 19.4363 25.2465 19.9345 25.7852 20.1115V21.8019L22.9185 23.4597V15.9623C23.4572 15.7853 23.846 15.2871 23.846 14.6956C23.846 13.9552 23.2417 13.3545 22.497 13.3545C21.7522 13.3545 21.1479 13.9552 21.1479 14.6956C21.1479 15.2871 21.5367 15.7853 22.0754 15.9623V25.2619H22.9185V24.4283L26.6283 22.2816V20.1115C27.167 19.9345 27.5557 19.4363 27.5557 18.8449C27.5557 18.1044 26.9515 17.5037 26.2067 17.5037ZM22.497 15.1986C22.2159 15.1986 21.9911 14.9704 21.9911 14.6956C21.9911 14.4209 22.2206 14.1927 22.497 14.1927C22.7733 14.1927 23.0028 14.4209 23.0028 14.6956C23.0028 14.9704 22.7733 15.1986 22.497 15.1986ZM26.2067 19.3524C25.9257 19.3524 25.7008 19.1243 25.7008 18.8495C25.7008 18.5748 25.9304 18.3466 26.2067 18.3466C26.4831 18.3466 26.7126 18.5748 26.7126 18.8495C26.7126 19.1243 26.4878 19.3524 26.2067 19.3524Z" fill="#F58220"/>
<path d="M19.204 18.7284C19.7427 18.5515 20.1315 18.0532 20.1315 17.4618C20.1315 16.7213 19.5272 16.1206 18.7825 16.1206C18.0377 16.1206 17.4335 16.7213 17.4335 17.4618C17.4335 18.0532 17.8222 18.5515 18.3609 18.7284V20.8845L21.2182 23.32V22.2163L19.204 20.5026V18.7331V18.7284ZM18.7825 17.9647C18.5014 17.9647 18.2766 17.7365 18.2766 17.4618C18.2766 17.187 18.5061 16.9588 18.7825 16.9588C19.0588 16.9588 19.2884 17.187 19.2884 17.4618C19.2884 17.7365 19.0588 17.9647 18.7825 17.9647Z" fill="#F58220"/>
</g>
<defs>
<clipPath id="clip0_2222_41075">
<rect width="23.1111" height="22.2222" fill="white" transform="translate(4.44458 4.88867)"/>
</clipPath>
</defs>
</svg>
