<svg width="32" height="32" viewBox="0 0 32 32" fill="none" xmlns="http://www.w3.org/2000/svg">
<g clip-path="url(#clip0_2222_41163)">
<path d="M25.0853 19.1559V18.1421H24.2124V19.1559H23.6381C22.8387 19.1559 22.1909 19.8074 22.1909 20.6056V23.0646H23.0638V20.6056C23.0638 20.2891 23.3211 20.0276 23.6427 20.0276H27.1159V19.1559H25.0899H25.0853Z" fill="#F58220"/>
<path d="M24.2122 23.0599H26.2383V24.6472C26.2383 24.9638 25.981 25.2253 25.6594 25.2253H22.1862V26.0969H24.2122V27.1108H25.0851V26.0969H25.664C26.4634 26.0969 27.1112 25.4455 27.1112 24.6518V22.1929H24.2122V23.0645V23.0599Z" fill="#F58220"/>
<path d="M13.7879 13.3389H12.3453V14.2105H13.7879V13.3389Z" fill="#043B72"/>
<path d="M17.6286 13.3389H16.186V14.2105H17.6286V13.3389Z" fill="#043B72"/>
<path d="M21.4694 13.3389H20.0269V14.2105H21.4694V13.3389Z" fill="#043B72"/>
<path d="M13.7879 17.1743H12.3453V18.046H13.7879V17.1743Z" fill="#043B72"/>
<path d="M17.6286 17.1743H16.186V18.046H17.6286V17.1743Z" fill="#043B72"/>
<path d="M13.7879 21.0049H12.3453V21.8765H13.7879V21.0049Z" fill="#043B72"/>
<path d="M9.95174 17.1743H8.50916V18.046H9.95174V17.1743Z" fill="#043B72"/>
<path d="M9.95174 21.0049H8.50916V21.8765H9.95174V21.0049Z" fill="#043B72"/>
<path d="M21.4694 17.1743H20.0269V18.046H21.4694V17.1743Z" fill="#043B72"/>
<path d="M21.2627 6.58149V4.88867H20.3898V6.58149H10.4571V7.45313H20.3898V8.67342H21.2627V7.45313H24.2122V9.87996H5.76182V7.45313H8.7113V8.67342H9.58421V4.88867H8.7113V6.58149H4.88892V21.9453C4.88892 23.7711 6.37744 25.2575 8.20594 25.2575H19.6409V24.3859H8.20594C6.85983 24.3859 5.76182 23.2894 5.76182 21.9453V10.7516H24.2122V16.1145H25.0851V6.58149H21.2627Z" fill="#043B72"/>
</g>
<defs>
<clipPath id="clip0_2222_41163">
<rect width="22.2222" height="22.2222" fill="white" transform="translate(4.88892 4.88867)"/>
</clipPath>
</defs>
</svg>
