<svg width="32" height="32" viewBox="0 0 32 32" fill="none" xmlns="http://www.w3.org/2000/svg">
<g clip-path="url(#clip0_2222_41209)">
<path d="M16.1727 25.2547V22.2671H15.2932V25.2547C14.7324 25.4434 14.3241 25.9646 14.3241 26.5891C14.3241 27.3663 14.9567 27.9998 15.733 27.9998C16.5092 27.9998 17.1418 27.3663 17.1418 26.5891C17.1418 25.9646 16.7335 25.4434 16.1727 25.2547ZM15.733 27.1192C15.4413 27.1192 15.2035 26.8811 15.2035 26.5891C15.2035 26.297 15.4413 26.0589 15.733 26.0589C16.0246 26.0589 16.2624 26.297 16.2624 26.5891C16.2624 26.8811 16.0246 27.1192 15.733 27.1192Z" fill="#F58220"/>
<path d="M11.4167 23.6778C11.4167 24.5045 10.7437 25.1784 9.91809 25.1784H9.28545C9.35275 25.0166 9.38865 24.8369 9.38865 24.6482C9.38865 23.871 8.756 23.2375 7.97978 23.2375C7.20356 23.2375 6.57092 23.871 6.57092 24.6482C6.57092 25.4255 7.20356 26.0589 7.97978 26.0589C7.99324 26.0589 8.01119 26.0589 8.02465 26.0589H9.91809C11.2282 26.0589 12.2961 24.9897 12.2961 23.6778V22.2671H11.4167V23.6778ZM7.45483 24.6482C7.45483 24.3562 7.69263 24.1181 7.98427 24.1181C8.27591 24.1181 8.51372 24.3562 8.51372 24.6482C8.51372 24.9402 8.27591 25.1784 7.98427 25.1784C7.69263 25.1784 7.45483 24.9402 7.45483 24.6482Z" fill="#F58220"/>
<path d="M24.8951 24.6482C24.8951 23.871 24.2625 23.2375 23.4862 23.2375C22.71 23.2375 22.0774 23.871 22.0774 24.6482C22.0774 24.8369 22.1178 25.0121 22.1806 25.1784H21.5479C20.7224 25.1784 20.0493 24.5045 20.0493 23.6778V22.2671H19.1699V23.6778C19.1699 24.9897 20.2378 26.0589 21.5479 26.0589H23.4952C24.2669 26.0544 24.8951 25.421 24.8951 24.6482ZM23.4862 25.1784C23.1946 25.1784 22.9568 24.9402 22.9568 24.6482C22.9568 24.3562 23.1946 24.1181 23.4862 24.1181C23.7779 24.1181 24.0157 24.3562 24.0157 24.6482C24.0157 24.9402 23.7779 25.1784 23.4862 25.1784Z" fill="#F58220"/>
<path d="M15.7375 4.88067C17.6624 4.88067 19.4481 5.77921 20.516 7.27977C20.7448 7.59875 21.2114 8.59613 21.373 8.95105L21.4717 9.1667C21.7588 9.08583 22.0505 9.03192 22.3466 8.99149H22.3556L22.1716 8.58714C22.1088 8.44787 21.548 7.21238 21.2294 6.76311C19.9955 5.02893 17.9405 3.99561 15.733 3.99561C12.1526 3.99561 9.51879 6.28688 9.17779 9.69235L9.15087 9.9709C9.15087 9.9709 9.11049 9.9709 9.08805 9.9709C6.18957 9.9709 4 12.2172 4 15.1959C4 18.3678 5.83511 20.4164 8.67975 20.4164H11.152L14.1582 17.5007V19.2303H15.0376V16.0046H11.7443V16.8852H13.521L10.7975 19.5314H8.67975C5.87998 19.5314 4.8839 17.2895 4.8839 15.1914C4.8839 12.6755 6.6562 10.8515 9.09703 10.8515C9.24061 10.8515 9.38418 10.8605 9.52328 10.8739L9.96298 10.9189L10.0527 10.0428H10.0437L10.0707 9.7867C10.3623 6.85296 12.6461 4.88516 15.751 4.88516L15.7375 4.88067Z" fill="#043B72"/>
<path d="M27.982 14.7553C27.7756 12.0013 25.6668 9.9751 22.9074 9.9751C22.7324 9.9751 22.5619 9.98408 22.4184 9.99756C22.36 9.99756 20.9736 10.065 19.9551 11.2331L19.2013 11.9654V10.4468H18.3219V13.6726H21.6152V12.792H19.6186L20.5922 11.8486C21.3774 10.95 22.4408 10.8871 22.4812 10.8871C22.6203 10.8736 22.7639 10.8647 22.9074 10.8647C25.3483 10.8647 27.1206 12.6887 27.1206 15.2046V19.5445H19.0398V20.4251H28.0045V14.7643H27.982V14.7553Z" fill="#043B72"/>
</g>
<defs>
<clipPath id="clip0_2222_41209">
<rect width="24" height="24" fill="white" transform="translate(4 4)"/>
</clipPath>
</defs>
</svg>
